<?xml version="1.0" encoding="utf-8"?>
<!-- Generator: Adobe Illustrator 17.0.0, SVG Export Plug-In . SVG Version: 6.00 Build 0)  -->
<!DOCTYPE svg PUBLIC "-//W3C//DTD SVG 1.1//EN" "http://www.w3.org/Graphics/SVG/1.1/DTD/svg11.dtd">
<svg version="1.1" xmlns="http://www.w3.org/2000/svg" xmlns:xlink="http://www.w3.org/1999/xlink" x="0px" y="0px"
	 width="469.771px" height="335.672px" viewBox="0 0 469.771 335.672" enable-background="new 0 0 469.771 335.672"
	 xml:space="preserve">
<g id="Layer_1">
	<g>
		<g>
			<path fill="#D0DAE7" d="M322.194,198.314l0-198.314l-91.86,60.248L138.256,0v198.185v0v-1.897l0.165,2.025l91.438,62.933
				l92.334-62.892l-0.022-0.041H322.194z M296.262,186.143l-65.928,43.103l-66.146-43.272V52.507l65.672,39.741l0.278,0.522
				l66.124-40.093V186.143z"/>
			<polygon fill="#D0DAE7" points="190.121,172.184 230.225,197.404 230.225,123.64 190.121,98.692 			"/>
		</g>
		<g>
			<path fill="#D0DAE7" d="M41.163,334.455l0.256-32.122h-0.192l-11.797,32.122h-7.694l-11.476-32.122h-0.193l0.257,32.122H0V289.06
				h15.599l10.335,29.11h0.257l9.886-29.11h15.857v45.394H41.163z"/>
			<path fill="#D0DAE7" d="M84.311,334.455l-3.526-8.912H63.217l-3.334,8.912H47.958L67,289.06h10.643l18.85,45.394H84.311z
				 M72.129,301.18l-5.77,15.58h11.412L72.129,301.18z"/>
			<path fill="#D0DAE7" d="M123.934,333.653c-2.949,1.346-6.347,2.019-10.195,2.019c-3.505,0-6.743-0.576-9.713-1.731
				c-2.971-1.153-5.546-2.788-7.727-4.905c-2.179-2.117-3.89-4.649-5.129-7.597c-1.24-2.95-1.859-6.199-1.859-9.747
				c0-3.632,0.63-6.924,1.891-9.874c1.26-2.95,3.003-5.459,5.226-7.533c2.222-2.073,4.83-3.665,7.822-4.778
				c2.991-1.11,6.219-1.666,9.681-1.666c3.205,0,6.357,0.567,9.457,1.699c3.098,1.132,5.61,2.788,7.534,4.969l-7.438,7.437
				c-1.026-1.411-2.372-2.458-4.039-3.141c-1.667-0.684-3.377-1.026-5.129-1.026c-1.924,0-3.686,0.353-5.29,1.057
				c-1.603,0.706-2.981,1.678-4.135,2.917c-1.154,1.24-2.051,2.705-2.693,4.393c-0.641,1.689-0.961,3.536-0.961,5.545
				c0,2.052,0.32,3.934,0.961,5.642c0.642,1.711,1.528,3.174,2.661,4.392c1.132,1.219,2.49,2.171,4.072,2.854
				c1.581,0.684,3.312,1.026,5.193,1.026c2.18,0,4.081-0.428,5.706-1.284c1.624-0.854,2.927-1.965,3.911-3.332l7.63,7.18
				C129.362,330.479,126.884,332.307,123.934,333.653z"/>
			<path fill="#D0DAE7" d="M156.057,334.455l-16.863-20.902h-0.128v20.902h-10.708V289.06h10.708v18.466h0.192l16.221-18.466H169.2
				l-19.555,20.902l20.709,24.492H156.057z"/>
			<path fill="#D0DAE7" d="M166.251,334.455V289.06h30.519v9.234h-19.94v8.59h18.85v8.785h-18.85v9.425h21.094v9.361H166.251z"/>
			<path fill="#D0DAE7" d="M226.326,334.455l-18.273-29.685h-0.192l0.257,29.685h-10.643V289.06h12.503l18.209,29.621h0.192
				l-0.257-29.621h10.643v45.394H226.326z"/>
			<path fill="#D0DAE7" d="M238.252,334.455v-9.507l21.607-26.654h-21.094v-9.234h34.815v8.785l-22.121,27.12h22.569v9.489H238.252z
				"/>
			<path fill="#D0DAE7" d="M273.45,334.455V289.06h11.028v45.394H273.45z"/>
			<path fill="#D0DAE7" d="M286.145,334.455V289.06h30.519v9.234h-19.94v8.59h18.85v8.785h-18.85v9.425h21.094v9.361H286.145z"/>
			<path fill="#D0DAE7" d="M357.122,327.402c-1.796,2.437-4.125,4.414-6.989,5.931c-2.864,1.517-6.306,2.277-10.322,2.277
				c-3.462,0-6.658-0.59-9.585-1.764c-2.929-1.176-5.45-2.821-7.566-4.938c-2.116-2.115-3.773-4.637-4.969-7.566
				c-1.197-2.927-1.796-6.143-1.796-9.649c0-3.546,0.61-6.785,1.828-9.714c1.217-2.927,2.906-5.426,5.065-7.501
				c2.158-2.071,4.712-3.685,7.662-4.84c2.949-1.153,6.155-1.731,9.617-1.731c1.538,0,3.098,0.15,4.68,0.449
				c1.581,0.299,3.098,0.748,4.552,1.346c1.452,0.598,2.778,1.336,3.975,2.212c1.196,0.877,2.222,1.891,3.078,3.045l-5.001,3.847
				c-1.112-1.539-2.683-2.811-4.712-3.816c-2.031-1.004-4.222-1.506-6.572-1.506c-2.651,0-5.033,0.48-7.149,1.442
				c-2.116,0.962-3.922,2.277-5.418,3.943c-1.497,1.668-2.651,3.602-3.462,5.804c-0.812,2.202-1.218,4.541-1.218,7.02
				c0,2.565,0.395,4.959,1.186,7.181c0.79,2.223,1.924,4.157,3.398,5.802c1.474,1.647,3.27,2.939,5.386,3.88
				c2.116,0.939,4.477,1.411,7.085,1.411c2.565,0,4.893-0.513,6.988-1.539c2.094-1.026,3.825-2.522,5.193-4.489L357.122,327.402z"/>
			<path fill="#D0DAE7" d="M355.903,289.06h6.347v18.979h22.953V289.06h6.412v45.394h-6.412v-20.773h-22.953v20.773h-6.347V289.06z"
				/>
			<path fill="#D0DAE7" d="M401.296,334.455h-6.347V289.06h6.347V334.455z"/>
			<path fill="#D0DAE7" d="M410.977,328.813h20.26v5.642H404.63V289.06h6.347V328.813z"/>
			<path fill="#D0DAE7" d="M429.698,289.06h15.58c2.905,0,5.812,0.428,8.72,1.284c2.905,0.854,5.534,2.202,7.886,4.039
				c2.351,1.838,4.252,4.19,5.706,7.053c1.452,2.865,2.18,6.305,2.18,10.322c0,3.891-0.728,7.256-2.18,10.098
				c-1.454,2.844-3.356,5.193-5.706,7.053c-2.351,1.859-4.98,3.249-7.886,4.167c-2.908,0.92-5.814,1.379-8.72,1.379h-15.58V289.06z
				 M436.046,328.877h7.95c2.735,0,5.267-0.384,7.598-1.155c2.329-0.769,4.338-1.88,6.026-3.334
				c1.688-1.452,3.003-3.247,3.943-5.385c0.94-2.138,1.411-4.553,1.411-7.246c0-2.821-0.47-5.299-1.411-7.437
				c-0.94-2.138-2.255-3.922-3.943-5.353c-1.689-1.431-3.698-2.522-6.026-3.27c-2.331-0.748-4.863-1.122-7.598-1.122h-7.95V328.877z
				"/>
		</g>
	</g>
	<g>
		<path fill="#D0DAE7" d="M331.727,2.545v5.858h-1.782V2.545h-2.084V1.023h5.951v1.522H331.727z"/>
		<path fill="#D0DAE7" d="M340.065,8.402l0.042-5.222h-0.031l-1.918,5.222h-1.251l-1.866-5.222h-0.031l0.042,5.222h-1.678V1.023
			h2.536l1.68,4.732h0.042l1.607-4.732h2.578v7.379H340.065z"/>
	</g>
</g>
<g id="Layer_2">
</g>
</svg>
